<svg width="370" height="38" viewBox="0 0 370 38" fill="none" xmlns="http://www.w3.org/2000/svg">
<path d="M31.2678 1.696C31.6198 1.632 31.9718 1.792 32.3238 2.176C32.6758 2.528 32.8518 2.928 32.8518 3.376C32.8518 3.632 32.8198 3.824 32.7558 3.952L31.5078 7.36C28.2118 16.32 26.5158 20.848 26.4198 20.944C25.9718 22.064 25.2998 23.76 24.4038 26.032C23.5078 28.304 22.8198 30.112 22.3398 31.456C22.0198 32.32 21.6838 33.12 21.3318 33.856C20.9798 34.464 20.6758 35.36 20.4198 36.544C20.3238 36.928 20.1318 37.264 19.8438 37.552C19.5558 37.84 19.2998 37.92 19.0758 37.792C17.8598 37.344 17.2518 36.688 17.2518 35.824C17.2518 35.6 17.2678 35.44 17.2998 35.344C17.3318 35.344 17.9558 33.872 19.1718 30.928L20.9958 26.56C23.3638 20.576 24.5638 17.44 24.5958 17.152C24.7558 16.8 24.9158 16.4 25.0758 15.952C25.2358 15.472 25.3638 15.12 25.4598 14.896C25.8758 13.648 26.2118 12.784 26.4678 12.304C26.7558 11.696 27.0118 11.12 27.2358 10.576C27.4598 10 27.5718 9.52 27.5718 9.136C25.6518 11.216 22.5958 14.512 18.4038 19.024C14.2438 23.504 11.2038 26.752 9.28375 28.768C9.05975 28.96 8.43575 29.52 7.41175 30.448C6.54775 31.312 5.87575 31.92 5.39575 32.272C5.20375 32.432 4.70775 32.832 3.90775 33.472C3.13975 34.112 2.59575 34.432 2.27575 34.432C1.53975 34.304 1.01175 34.112 0.69175 33.856C0.40375 33.6 0.25975 33.264 0.25975 32.848C0.25975 32.496 0.37175 32.032 0.59575 31.456C0.81975 30.848 0.96375 30.448 1.02775 30.256C1.47575 28.72 1.73175 27.68 1.79575 27.136C2.05175 25.984 2.53175 24.288 3.23575 22.048C3.29975 21.792 3.47575 21.184 3.76375 20.224C4.05175 19.264 4.22775 18.352 4.29175 17.488C4.86775 16.496 5.41175 15.28 5.92375 13.84L6.73975 11.776C6.96375 11.296 7.23575 10.544 7.55575 9.52C7.93975 8.368 8.25975 7.52 8.51575 6.976C8.80375 6.432 8.97975 6.096 9.04375 5.968C9.61975 4.816 10.0838 3.84 10.4358 3.04C10.7878 2.24 10.9798 1.552 11.0118 0.975999C11.0118 0.591998 11.2038 0.399998 11.5878 0.399998C11.9398 0.399998 12.3398 0.543998 12.7878 0.831998C13.2358 1.088 13.4758 1.296 13.5078 1.456C13.6358 1.904 13.6998 2.272 13.6998 2.56C13.6998 2.816 13.6518 3.088 13.5558 3.376L9.57175 13.504L5.20375 25.072C4.75575 26.48 4.53175 27.504 4.53175 28.144C4.53175 28.752 4.73975 28.944 5.15575 28.72L14.8518 19.024C15.9078 17.904 16.9478 16.688 17.9718 15.376C18.1958 15.28 19.6038 13.76 22.1958 10.816L24.2598 8.464L30.3558 1.984L31.2678 1.696ZM35.581 33.712C35.421 33.776 35.005 33.648 34.333 33.328C33.661 32.976 33.165 32.624 32.845 32.272C32.525 31.888 32.269 31.536 32.077 31.216C31.917 30.896 31.837 30.528 31.837 30.112C31.645 29.664 31.517 29.216 31.453 28.768C31.421 28.288 31.405 27.68 31.405 26.944C31.405 26.272 31.533 25.616 31.789 24.976C32.045 24.336 32.397 23.568 32.845 22.672C33.133 21.872 33.773 20.896 34.765 19.744C35.789 18.56 36.861 17.696 37.981 17.152C38.877 16.672 39.645 16.432 40.285 16.432C40.669 16.432 41.037 16.496 41.389 16.624C41.773 16.72 42.061 16.88 42.253 17.104C42.445 17.296 42.589 17.424 42.685 17.488C42.941 17.232 43.165 16.656 43.357 15.76C43.581 14.832 43.693 13.84 43.693 12.784C43.693 10.8 43.357 9.36 42.685 8.464C41.629 6.96 40.397 6.208 38.989 6.208C38.445 6.208 37.773 6.368 36.973 6.688C36.557 6.496 36.205 6.176 35.917 5.728C35.629 5.28 35.549 4.848 35.677 4.432C36.413 3.824 37.117 3.456 37.789 3.328C38.429 3.2 38.893 3.136 39.181 3.136C39.725 3.136 40.205 3.264 40.621 3.52C42.221 4.032 43.453 4.768 44.317 5.728C45.181 6.688 45.773 7.824 46.093 9.136C46.445 10.448 46.653 12.096 46.717 14.08C46.749 14.368 46.765 14.752 46.765 15.232C46.765 15.648 46.717 16.384 46.621 17.44C46.429 17.696 46.317 18.016 46.285 18.4C46.253 18.784 46.237 19.008 46.237 19.072C46.237 19.712 46.173 20.176 46.045 20.464C46.013 20.88 45.885 21.328 45.661 21.808C45.437 22.288 45.325 22.624 45.325 22.816C44.397 25.44 43.053 27.792 41.293 29.872C39.533 31.952 37.629 33.232 35.581 33.712ZM35.293 30.592C35.741 30.784 36.509 30.432 37.597 29.536C38.717 28.608 39.645 27.616 40.381 26.56C40.573 26.272 40.877 25.728 41.293 24.928C41.709 24.096 42.013 23.472 42.205 23.056C42.557 22.096 42.733 21.232 42.733 20.464C42.733 19.92 42.637 19.552 42.445 19.36C42.189 19.104 41.853 18.976 41.437 18.976C40.637 18.976 39.661 19.376 38.509 20.176C38.125 20.464 37.741 20.864 37.357 21.376C37.005 21.856 36.781 22.16 36.685 22.288C36.365 22.8 36.109 23.168 35.917 23.392V23.488C35.917 23.712 35.821 23.904 35.629 24.064C35.469 24.224 35.357 24.352 35.293 24.448C34.941 25.12 34.685 25.808 34.525 26.512C34.365 27.184 34.285 27.664 34.285 27.952C34.285 28.528 34.365 29.072 34.525 29.584C34.717 30.096 34.973 30.432 35.293 30.592ZM56.2949 32.32C55.4949 33.024 54.5349 33.376 53.4149 33.376C52.6149 33.376 51.8469 33.184 51.1109 32.8C50.4069 32.416 49.8149 31.888 49.3349 31.216C48.9189 30.704 48.6149 30.128 48.4229 29.488C48.2309 28.848 48.1349 28.064 48.1349 27.136C48.1349 26.816 48.1669 26.176 48.2309 25.216C48.3269 24.032 48.7109 22.8 49.3829 21.52C50.0869 20.24 50.9509 19.104 51.9749 18.112C52.9989 17.088 54.0069 16.384 54.9989 16C55.5109 15.68 55.9749 15.52 56.3909 15.52C56.6149 15.52 56.8389 15.536 57.0629 15.568C57.2869 15.6 57.5269 15.632 57.7829 15.664C58.4869 15.76 59.0149 15.904 59.3669 16.096C59.7509 16.256 60.0709 16.512 60.3269 16.864C61.1269 17.664 61.5269 18.592 61.5269 19.648C61.3989 20.416 60.9029 21.296 60.0389 22.288C59.1749 23.28 58.1349 24.08 56.9189 24.688C56.3429 24.88 55.6869 24.976 54.9509 24.976C53.9589 24.976 53.1589 24.768 52.5509 24.352C52.2629 24.256 52.0389 24.208 51.8789 24.208C51.5909 24.208 51.3669 24.4 51.2069 24.784C51.0789 25.168 50.9509 25.872 50.8229 26.896C50.7909 27.12 50.7749 27.44 50.7749 27.856C50.7749 29.488 51.3189 30.384 52.4069 30.544C53.1429 30.704 53.6709 30.784 53.9909 30.784C54.3749 30.784 54.8069 30.656 55.2869 30.4L56.1989 29.872C56.3909 29.776 56.5669 29.648 56.7269 29.488C56.8869 29.328 57.0309 29.184 57.1589 29.056C57.2229 28.992 57.3189 28.896 57.4469 28.768C57.5749 28.608 57.6869 28.512 57.7829 28.48C57.9109 28.416 58.0229 28.384 58.1189 28.384C58.2469 28.384 58.3909 28.464 58.5509 28.624C58.7109 28.752 58.8389 28.848 58.9349 28.912C59.2229 28.912 59.2869 29.12 59.1269 29.536C58.9669 29.92 58.6149 30.384 58.0709 30.928C57.5589 31.44 56.9669 31.904 56.2949 32.32ZM56.2469 22.144C56.7909 21.92 57.3349 21.52 57.8789 20.944C58.4549 20.368 58.7429 19.888 58.7429 19.504C58.7429 19.12 58.5989 18.8 58.3109 18.544C58.0229 18.288 57.6229 18.16 57.1109 18.16C56.7269 18.16 56.4389 18.192 56.2469 18.256C55.7989 18.384 55.2709 18.736 54.6629 19.312C54.0549 19.856 53.5269 20.416 53.0789 20.992C52.6309 21.568 52.4549 21.904 52.5509 22C52.7109 22.288 53.3349 22.432 54.4229 22.432C55.1589 22.432 55.7669 22.336 56.2469 22.144ZM67.5363 32.608C67.2163 32.672 66.9283 32.704 66.6723 32.704C66.2563 32.704 65.8723 32.672 65.5203 32.608C65.1683 32.512 64.9922 32.4 64.9922 32.272C64.9922 32.176 64.9763 32.112 64.9443 32.08C64.9123 32.048 64.8483 32.032 64.7523 32.032C64.7203 32 64.6243 31.92 64.4643 31.792C64.3043 31.664 64.1123 31.552 63.8883 31.456C63.6003 31.008 63.4563 30.528 63.4563 30.016C63.4563 29.472 63.6003 28.624 63.8883 27.472C63.9843 26.448 64.4643 25.168 65.3283 23.632C66.1923 22.096 67.2003 20.64 68.3523 19.264C69.5363 17.888 70.5923 16.928 71.5203 16.384C72.0003 15.904 72.6083 15.664 73.3443 15.664C73.9203 15.664 74.4643 15.808 74.9763 16.096C75.4243 16.352 75.8883 16.784 76.3683 17.392C76.8803 18 77.2803 18.624 77.5683 19.264C77.6963 19.744 77.7603 20.208 77.7603 20.656C77.7603 21.136 77.6963 21.888 77.5683 22.912C77.4083 23.488 77.2643 24.192 77.1363 25.024C77.0403 25.856 76.9923 26.576 76.9923 27.184C76.9283 27.632 76.9603 28 77.0883 28.288C77.2163 28.544 77.3923 28.672 77.6163 28.672C77.7763 28.672 77.9523 28.624 78.1443 28.528C78.4643 28.368 78.8163 28.288 79.2003 28.288C79.5523 28.288 79.8403 28.384 80.0643 28.576C80.2883 28.768 80.4003 29.056 80.4003 29.44C80.4003 30.016 80.0003 30.592 79.2003 31.168C78.4323 31.744 77.6963 32.032 76.9923 32.032C76.5123 32.032 76.0643 31.664 75.6483 30.928C75.2643 30.16 74.8803 29.184 74.4963 28L74.2083 26.896L72.1443 28.864L71.0403 29.968C70.5283 30.48 70.2403 30.784 70.1763 30.88C69.8243 31.488 68.9443 32.064 67.5363 32.608ZM67.6803 29.776C68.4483 29.328 69.3923 28.544 70.5123 27.424C71.6323 26.304 72.5603 25.232 73.2963 24.208C74.2883 22.896 74.9123 21.6 75.1683 20.32C75.0403 19.936 74.8323 19.552 74.5443 19.168C74.2563 18.784 74.0003 18.576 73.7763 18.544C73.1363 18.544 72.4643 18.912 71.7603 19.648C71.0563 20.384 70.2243 21.408 69.2643 22.72L67.6803 25.072C67.4883 25.328 67.1523 26.016 66.6723 27.136C66.1923 28.224 65.9523 28.88 65.9523 29.104C65.9523 29.808 66.1603 30.16 66.5763 30.16C66.8963 30.16 67.2643 30.032 67.6803 29.776ZM81.8579 33.088C81.6339 32.96 81.3619 32.88 81.0419 32.848C80.7539 32.816 80.5459 32.784 80.4179 32.752C79.9699 32.304 79.6819 31.792 79.5539 31.216V31.072C79.5539 30.912 79.6019 30.752 79.6979 30.592C79.8259 30.432 79.9059 30.32 79.9379 30.256L80.6579 30.304C81.5539 29.632 82.4659 28.656 83.3939 27.376C84.3219 26.16 85.0099 24.88 85.4579 23.536C85.5219 23.28 85.5859 22.976 85.6499 22.624C85.7139 22.272 85.7939 22 85.8899 21.808C86.0499 21.488 86.1939 21.088 86.3219 20.608C86.4819 20.128 86.6099 19.744 86.7059 19.456C85.9699 19.328 85.4899 19.216 85.2659 19.12C85.0739 19.024 84.7059 18.72 84.1619 18.208C84.1299 17.76 84.1779 17.44 84.3059 17.248C84.4339 17.024 84.7379 16.848 85.2179 16.72C85.3139 16.688 85.4739 16.64 85.6979 16.576C85.9539 16.512 86.1779 16.48 86.3699 16.48C86.5939 16.448 86.9459 16.432 87.4259 16.432C87.9059 16.432 88.2739 16.448 88.5299 16.48C88.8499 16.512 89.3619 16.624 90.0659 16.816C90.3539 16.912 90.6419 17.04 90.9299 17.2C91.2179 17.328 91.5059 17.44 91.7939 17.536C92.0499 17.6 92.4659 17.824 93.0419 18.208C93.6179 18.56 94.0659 19.008 94.3859 19.552C94.7059 20.096 94.8659 20.672 94.8659 21.28C94.8659 22.272 94.7219 23.2 94.4339 24.064C94.0499 25.536 93.6979 26.752 93.3779 27.712C93.3139 27.936 93.2019 28.304 93.0419 28.816C92.8819 29.296 92.7699 29.728 92.7059 30.112C92.6739 30.24 92.5779 31.008 92.4179 32.416L91.6499 32.656C91.5539 32.624 91.3459 32.56 91.0259 32.464C90.7059 32.368 90.4339 32.224 90.2099 32.032C89.9859 31.84 89.8259 31.584 89.7299 31.264L89.7779 30.736V30.16C89.8739 29.136 90.1299 28.016 90.5459 26.8C90.8019 26.128 91.0259 25.408 91.2179 24.64C91.4419 23.84 91.5859 23.312 91.6499 23.056C91.8099 22.544 91.9219 21.952 91.9859 21.28V21.088C91.9859 20.8 91.9059 20.464 91.7459 20.08C91.2019 19.632 90.4819 19.328 89.5859 19.168C89.4899 19.424 89.3779 19.664 89.2499 19.888C89.2179 19.952 89.1859 20.048 89.1539 20.176C89.1539 20.272 89.1379 20.336 89.1059 20.368C88.9459 20.496 88.8339 20.656 88.7699 20.848C88.7059 21.008 88.6579 21.232 88.6259 21.52C88.5939 21.84 88.4659 22.16 88.2419 22.48C88.0819 22.672 87.9699 23.056 87.9059 23.632C87.7779 24.56 87.4579 25.52 86.9459 26.512C86.6259 26.96 86.3539 27.44 86.1299 27.952C86.0979 28.08 86.0339 28.208 85.9379 28.336C85.8419 28.464 85.7619 28.592 85.6979 28.72C85.2819 29.552 84.8819 30.176 84.4979 30.592C84.3379 30.752 84.0019 31.12 83.4899 31.696C82.9779 32.272 82.4339 32.736 81.8579 33.088ZM100.812 33.232C100.3 33.168 99.9319 33.136 99.7079 33.136C99.0999 33.072 98.6359 32.992 98.3159 32.896C98.0279 32.8 97.7559 32.592 97.4999 32.272C96.8279 31.696 96.4919 30.752 96.4919 29.44C96.4919 28.032 96.8119 26.4 97.4519 24.544C98.0919 22.688 98.9079 20.624 99.8999 18.352C100.54 16.816 100.876 15.984 100.908 15.856C100.844 15.472 101.084 15.28 101.628 15.28C101.884 15.28 102.14 15.312 102.396 15.376C102.684 15.44 102.908 15.504 103.068 15.568C103.26 15.792 103.452 16.032 103.644 16.288C103.836 16.544 103.948 16.8 103.98 17.056C104.044 17.536 103.772 18.128 103.164 18.832C102.684 19.376 102.124 20.4 101.484 21.904C100.876 23.408 100.364 24.96 99.9479 26.56C99.5639 28.128 99.4039 29.296 99.4679 30.064C100.108 30.256 100.716 30.352 101.292 30.352C102.316 30.352 103.276 30.112 104.172 29.632C105.068 29.152 105.756 28.544 106.236 27.808C106.556 27.296 106.716 26.8 106.716 26.32C106.716 25.36 106.044 24.88 104.7 24.88C104.06 24.88 103.308 24.96 102.444 25.12C101.996 24.672 101.772 24.24 101.772 23.824C101.772 23.312 102.06 22.896 102.636 22.576C103.212 22.256 103.82 22.096 104.46 22.096C105.132 22.096 105.836 22.272 106.572 22.624C107.34 22.976 107.964 23.408 108.444 23.92C108.988 24.528 109.308 25.168 109.404 25.84C109.468 26.288 109.5 26.608 109.5 26.8C109.5 27.888 109.18 28.848 108.54 29.68C108.06 30.352 107.372 30.928 106.476 31.408C105.58 31.888 104.716 32.288 103.884 32.608C103.084 32.928 102.572 33.136 102.348 33.232C102.156 33.232 101.98 33.216 101.82 33.184C101.692 33.152 101.548 33.136 101.388 33.136L100.812 33.232ZM126.042 16.96C126.394 16.768 126.746 16.672 127.098 16.672C127.546 16.672 127.93 16.816 128.25 17.104C128.602 17.36 128.778 17.696 128.778 18.112C128.778 18.176 128.746 18.336 128.682 18.592C128.778 18.176 128.442 18.864 127.674 20.656C126.906 22.448 126.49 23.408 126.426 23.536V23.68C126.874 23.68 127.162 23.824 127.29 24.112C127.45 24.368 127.514 24.72 127.482 25.168C127.194 25.232 126.922 25.344 126.666 25.504C126.41 25.664 126.202 25.744 126.042 25.744C125.946 25.744 125.834 25.792 125.706 25.888C125.578 25.984 125.498 26.096 125.466 26.224C125.402 26.352 125.29 26.848 125.13 27.712L124.266 31.168C124.202 31.392 124.09 31.584 123.93 31.744C123.77 31.904 123.626 32 123.498 32.032C123.37 32 123.114 31.92 122.73 31.792C122.378 31.632 122.138 31.52 122.01 31.456C121.882 31.36 121.754 31.264 121.626 31.168V30.88C121.626 30.432 121.706 29.968 121.866 29.488C122.122 28.72 122.378 27.648 122.634 26.272C122.378 26.176 121.738 26.224 120.714 26.416C119.69 26.576 119.13 26.656 119.034 26.656C118.842 26.752 118.458 26.8 117.882 26.8C116.954 26.8 116.298 26.72 115.914 26.56L115.626 26.704C115.562 26.992 115.466 27.312 115.338 27.664C114.986 28.656 114.81 29.392 114.81 29.872C114.746 30.32 114.682 30.688 114.618 30.976C114.554 31.296 114.49 31.776 114.426 32.416C114.394 33.312 114.09 33.76 113.514 33.76C113.162 33.76 112.778 33.632 112.362 33.376C112.138 33.248 111.834 32.992 111.45 32.608L112.218 28.912C112.314 28.624 112.41 28.224 112.506 27.712C112.634 27.2 112.762 26.784 112.89 26.464L113.418 24.976C113.802 23.856 114.154 22.944 114.474 22.24C114.474 22.24 114.81 21.296 115.482 19.408C115.578 19.184 115.786 18.576 116.106 17.584C116.458 16.56 116.666 15.968 116.73 15.808C116.858 15.456 117.114 15.28 117.498 15.28C118.01 15.248 118.442 15.376 118.794 15.664C119.178 15.92 119.386 16.24 119.418 16.624C119.418 16.72 119.402 16.88 119.37 17.104C119.338 17.296 119.306 17.44 119.273 17.536L116.778 23.632V24.016C116.906 24.112 117.13 24.16 117.45 24.16C117.706 24.16 118.09 24.112 118.602 24.016C119.146 23.92 119.482 23.872 119.609 23.872C119.898 23.84 120.33 23.808 120.906 23.776C121.482 23.744 122.058 23.728 122.634 23.728C123.082 23.728 123.322 23.744 123.354 23.776L123.882 22.24C124.394 20.672 124.938 19.408 125.514 18.448C125.546 18.352 125.61 18.176 125.706 17.92C125.802 17.632 125.914 17.312 126.042 16.96ZM136.367 33.712C135.983 33.744 135.663 33.728 135.407 33.664C135.183 33.568 134.847 33.376 134.399 33.088C133.023 31.968 132.351 30.864 132.383 29.776C132.415 29.68 132.431 29.536 132.431 29.344C132.431 29.152 132.415 29.008 132.383 28.912C132.351 28.784 132.335 28.704 132.335 28.672C132.207 28.576 132.127 28.512 132.095 28.48C132.095 28.416 132.111 28.352 132.143 28.288C132.207 28.224 132.255 28.16 132.287 28.096C132.415 28.064 132.479 28 132.479 27.904C132.479 27.808 132.447 27.696 132.383 27.568C132.287 27.312 132.335 26.736 132.527 25.84C132.751 24.912 133.039 24.048 133.391 23.248C133.647 22.64 134.047 21.856 134.591 20.896C135.167 19.936 135.695 19.2 136.175 18.688C136.847 17.92 137.455 17.328 137.999 16.912C138.575 16.496 139.231 16.16 139.967 15.904C140.639 15.616 141.103 15.472 141.359 15.472C141.679 15.472 142.079 15.664 142.559 16.048C143.327 16.272 143.903 16.592 144.287 17.008C144.703 17.392 145.023 18 145.247 18.832C145.439 19.504 145.535 20.256 145.535 21.088C145.535 22.88 144.975 24.848 143.855 26.992C143.279 28.144 142.719 29.04 142.175 29.68C141.631 30.288 140.879 31.008 139.919 31.84C139.247 32.384 138.655 32.8 138.143 33.088C137.663 33.376 137.071 33.584 136.367 33.712ZM140.207 28C140.879 27.008 141.391 26.112 141.743 25.312C142.095 24.48 142.383 23.456 142.607 22.24C142.639 22.112 142.655 21.856 142.655 21.472C142.655 20.832 142.591 20.224 142.463 19.648C142.335 19.072 142.175 18.768 141.983 18.736C141.727 18.64 141.487 18.592 141.263 18.592C140.527 18.592 139.743 19.024 138.911 19.888C138.143 20.784 137.471 21.872 136.895 23.152C136.351 24.4 135.807 25.936 135.263 27.76C135.103 28.4 135.023 28.912 135.023 29.296C135.023 29.872 135.135 30.336 135.359 30.688C135.583 31.008 135.903 31.168 136.319 31.168C136.831 31.168 137.423 30.912 138.095 30.4C138.767 29.856 139.471 29.056 140.207 28ZM163.81 25.456C163.17 25.456 162.61 25.376 162.13 25.216C161.682 25.216 161.362 25.168 161.17 25.072C161.01 24.976 160.866 24.8 160.738 24.544C160.546 24.256 160.45 24.032 160.45 23.872C160.45 23.68 160.626 23.536 160.978 23.44C161.33 23.312 161.954 23.2 162.85 23.104C163.97 22.848 164.978 22.672 165.874 22.576C166.802 22.48 167.906 22.432 169.186 22.432C170.018 22.432 170.578 22.48 170.866 22.576C171.154 22.64 171.474 22.832 171.826 23.152C172.21 23.536 172.402 23.904 172.402 24.256C172.402 24.544 172.274 24.752 172.018 24.88C171.794 25.008 171.474 25.04 171.058 24.976L168.034 25.216C167.842 25.216 167.314 25.264 166.45 25.36C165.618 25.424 164.738 25.456 163.81 25.456ZM192.003 33.712C191.843 33.776 191.427 33.648 190.755 33.328C190.083 32.976 189.587 32.624 189.267 32.272C188.947 31.888 188.691 31.536 188.499 31.216C188.339 30.896 188.259 30.528 188.259 30.112C188.067 29.664 187.939 29.216 187.875 28.768C187.843 28.288 187.827 27.68 187.827 26.944C187.827 26.272 187.955 25.616 188.211 24.976C188.467 24.336 188.819 23.568 189.267 22.672C189.555 21.872 190.195 20.896 191.187 19.744C192.211 18.56 193.283 17.696 194.403 17.152C195.299 16.672 196.067 16.432 196.707 16.432C197.091 16.432 197.459 16.496 197.811 16.624C198.195 16.72 198.483 16.88 198.675 17.104C198.867 17.296 199.011 17.424 199.107 17.488C199.363 17.232 199.587 16.656 199.779 15.76C200.003 14.832 200.115 13.84 200.115 12.784C200.115 10.8 199.779 9.36 199.107 8.464C198.051 6.96 196.819 6.208 195.411 6.208C194.867 6.208 194.195 6.368 193.395 6.688C192.979 6.496 192.627 6.176 192.339 5.728C192.051 5.28 191.971 4.848 192.099 4.432C192.835 3.824 193.539 3.456 194.211 3.328C194.851 3.2 195.315 3.136 195.603 3.136C196.147 3.136 196.627 3.264 197.043 3.52C198.643 4.032 199.875 4.768 200.739 5.728C201.603 6.688 202.195 7.824 202.515 9.136C202.867 10.448 203.075 12.096 203.139 14.08C203.171 14.368 203.187 14.752 203.187 15.232C203.187 15.648 203.139 16.384 203.043 17.44C202.851 17.696 202.739 18.016 202.707 18.4C202.675 18.784 202.659 19.008 202.659 19.072C202.659 19.712 202.595 20.176 202.467 20.464C202.435 20.88 202.307 21.328 202.083 21.808C201.859 22.288 201.747 22.624 201.747 22.816C200.819 25.44 199.475 27.792 197.715 29.872C195.955 31.952 194.051 33.232 192.003 33.712ZM191.715 30.592C192.163 30.784 192.931 30.432 194.019 29.536C195.139 28.608 196.067 27.616 196.803 26.56C196.995 26.272 197.299 25.728 197.715 24.928C198.131 24.096 198.435 23.472 198.627 23.056C198.979 22.096 199.155 21.232 199.155 20.464C199.155 19.92 199.059 19.552 198.867 19.36C198.611 19.104 198.275 18.976 197.859 18.976C197.059 18.976 196.083 19.376 194.931 20.176C194.547 20.464 194.163 20.864 193.779 21.376C193.427 21.856 193.203 22.16 193.107 22.288C192.787 22.8 192.531 23.168 192.339 23.392V23.488C192.339 23.712 192.243 23.904 192.051 24.064C191.891 24.224 191.779 24.352 191.715 24.448C191.363 25.12 191.107 25.808 190.947 26.512C190.787 27.184 190.707 27.664 190.707 27.952C190.707 28.528 190.787 29.072 190.947 29.584C191.139 30.096 191.395 30.432 191.715 30.592ZM203.405 33.088C203.181 32.96 202.909 32.88 202.589 32.848C202.301 32.816 202.093 32.784 201.965 32.752C201.517 32.304 201.229 31.792 201.101 31.216V31.072C201.101 30.912 201.149 30.752 201.245 30.592C201.373 30.432 201.453 30.32 201.485 30.256L202.205 30.304C203.101 29.632 204.013 28.656 204.941 27.376C205.869 26.16 206.557 24.88 207.005 23.536C207.069 23.28 207.133 22.976 207.197 22.624C207.261 22.272 207.341 22 207.437 21.808C207.597 21.488 207.741 21.088 207.869 20.608C208.029 20.128 208.157 19.744 208.253 19.456C207.517 19.328 207.037 19.216 206.813 19.12C206.621 19.024 206.253 18.72 205.709 18.208C205.677 17.76 205.725 17.44 205.853 17.248C205.981 17.024 206.285 16.848 206.765 16.72C206.861 16.688 207.021 16.64 207.245 16.576C207.501 16.512 207.725 16.48 207.917 16.48C208.141 16.448 208.493 16.432 208.973 16.432C209.453 16.432 209.821 16.448 210.077 16.48C210.397 16.512 210.909 16.624 211.613 16.816C211.901 16.912 212.189 17.04 212.477 17.2C212.765 17.328 213.053 17.44 213.341 17.536C213.597 17.6 214.013 17.824 214.589 18.208C215.165 18.56 215.613 19.008 215.933 19.552C216.253 20.096 216.413 20.672 216.413 21.28C216.413 22.272 216.269 23.2 215.981 24.064C215.597 25.536 215.245 26.752 214.925 27.712C214.861 27.936 214.749 28.304 214.589 28.816C214.429 29.296 214.317 29.728 214.253 30.112C214.221 30.24 214.125 31.008 213.965 32.416L213.197 32.656C213.101 32.624 212.893 32.56 212.573 32.464C212.253 32.368 211.981 32.224 211.757 32.032C211.533 31.84 211.373 31.584 211.277 31.264L211.325 30.736V30.16C211.421 29.136 211.677 28.016 212.093 26.8C212.349 26.128 212.573 25.408 212.765 24.64C212.989 23.84 213.133 23.312 213.197 23.056C213.357 22.544 213.469 21.952 213.533 21.28V21.088C213.533 20.8 213.453 20.464 213.293 20.08C212.749 19.632 212.029 19.328 211.133 19.168C211.037 19.424 210.925 19.664 210.797 19.888C210.765 19.952 210.733 20.048 210.701 20.176C210.701 20.272 210.685 20.336 210.653 20.368C210.493 20.496 210.381 20.656 210.317 20.848C210.253 21.008 210.205 21.232 210.173 21.52C210.141 21.84 210.013 22.16 209.789 22.48C209.629 22.672 209.517 23.056 209.453 23.632C209.325 24.56 209.005 25.52 208.493 26.512C208.173 26.96 207.901 27.44 207.677 27.952C207.645 28.08 207.581 28.208 207.485 28.336C207.389 28.464 207.309 28.592 207.245 28.72C206.829 29.552 206.429 30.176 206.045 30.592C205.885 30.752 205.549 31.12 205.037 31.696C204.525 32.272 203.981 32.736 203.405 33.088ZM219.287 33.76C218.551 33.76 218.007 33.552 217.655 33.136C217.367 32.688 217.127 32.192 216.935 31.648C216.999 31.424 217.111 31.216 217.271 31.024C217.431 30.8 217.623 30.688 217.847 30.688C217.975 30.688 218.119 30.736 218.279 30.832C218.343 30.832 218.407 30.864 218.471 30.928C218.535 30.992 218.615 31.056 218.711 31.12C219.767 30.64 220.647 30.016 221.351 29.248C222.087 28.48 222.903 27.408 223.799 26.032C223.255 25.872 222.711 25.616 222.167 25.264C221.655 24.912 221.287 24.544 221.063 24.16C220.775 23.68 220.567 23.088 220.439 22.384C220.311 21.68 220.231 21.28 220.199 21.184C220.327 20.896 220.519 20.304 220.775 19.408C220.903 18.896 221.047 18.448 221.207 18.064C221.367 17.68 221.639 17.232 222.023 16.72C222.503 16.08 223.175 15.488 224.039 14.944C224.903 14.368 225.511 14.08 225.863 14.08C226.119 14.176 226.455 14.176 226.871 14.08C227.319 13.952 227.639 13.92 227.831 13.984C227.959 14.016 228.071 14.032 228.167 14.032C228.263 14 228.359 14 228.455 14.032C229.415 14.224 230.167 14.48 230.711 14.8C231.255 15.088 231.607 15.584 231.767 16.288C231.703 16.512 231.607 16.912 231.479 17.488C231.351 18.032 231.207 18.528 231.047 18.976C230.887 19.424 230.695 19.84 230.471 20.224L229.895 21.424C229.319 22.576 228.823 23.424 228.407 23.968L228.503 24.256C228.919 24.352 229.335 24.432 229.751 24.496C230.199 24.528 230.503 24.56 230.663 24.592C231.047 24.688 231.415 24.88 231.767 25.168C232.119 25.456 232.359 25.648 232.487 25.744V25.936C232.487 26.128 232.423 26.336 232.295 26.56C231.911 27.328 231.607 27.904 231.383 28.288C231.223 28.576 231.031 28.944 230.807 29.392C230.583 29.808 230.343 30.304 230.087 30.88C229.991 31.072 229.879 31.456 229.751 32.032C229.527 32.736 229.399 33.136 229.367 33.232C229.015 33.584 228.791 33.76 228.695 33.76C228.663 33.76 228.599 33.744 228.503 33.712C228.407 33.648 228.263 33.616 228.071 33.616C227.623 33.52 227.319 33.28 227.159 32.896C227.127 32.768 227.047 32.608 226.919 32.416C226.823 32.192 226.775 32 226.775 31.84C226.775 31.488 226.935 31.056 227.255 30.544C227.415 30.224 227.623 29.744 227.879 29.104C228.007 28.752 228.231 28.224 228.551 27.52C228.615 27.456 228.663 27.376 228.695 27.28C228.727 27.184 228.743 27.088 228.743 26.992H228.407L226.967 26.752C226.871 26.816 226.695 26.944 226.439 27.136C226.183 27.296 225.991 27.552 225.863 27.904C225.735 28.032 225.431 28.416 224.951 29.056C224.631 29.568 224.247 30.048 223.799 30.496C222.743 31.616 221.895 32.448 221.255 32.992C220.551 33.504 219.895 33.76 219.287 33.76ZM225.047 23.776C225.335 23.712 225.879 23.12 226.679 22C227.479 20.88 227.927 20.176 228.023 19.888C228.151 19.6 228.375 19.024 228.695 18.16C229.015 17.296 229.255 16.64 229.415 16.192C228.999 15.904 228.631 15.76 228.311 15.76C228.215 15.76 227.943 15.824 227.495 15.952C225.095 16.656 223.559 18.16 222.887 20.464C222.791 20.88 222.743 21.28 222.743 21.664C222.743 22.304 222.887 22.848 223.175 23.296C223.463 23.712 223.863 23.92 224.375 23.92C224.599 23.92 224.823 23.872 225.047 23.776ZM258.477 21.52C257.613 22.032 256.909 22.544 256.365 23.056C256.173 23.216 255.885 23.472 255.501 23.824C255.117 24.144 254.781 24.384 254.493 24.544C254.749 24.992 254.957 25.296 255.117 25.456L255.933 26.704C257.021 28.4 257.821 29.52 258.333 30.064C258.845 30.608 259.629 31.2 260.685 31.84C260.973 32.064 261.101 32.352 261.069 32.704C260.941 33.056 260.797 33.28 260.637 33.376C260.509 33.44 260.093 33.552 259.389 33.712C258.909 33.68 258.541 33.6 258.285 33.472C258.061 33.344 257.565 32.992 256.797 32.416C256.285 31.936 255.533 31.088 254.541 29.872C253.581 28.624 252.701 27.44 251.901 26.32C251.741 26.256 251.613 26.096 251.517 25.84C250.941 27.216 250.653 28.048 250.653 28.336C250.461 28.88 250.317 29.44 250.221 30.016C249.997 31.008 249.757 31.744 249.501 32.224C249.437 32.928 249.197 33.28 248.781 33.28C248.557 33.28 248.269 33.168 247.917 32.944C247.597 32.752 247.357 32.56 247.197 32.368C247.069 32.176 247.005 31.936 247.005 31.648C247.005 31.2 247.085 30.688 247.245 30.112C247.405 29.536 247.581 28.976 247.773 28.432C247.901 27.664 248.029 27.04 248.157 26.56C248.317 26.048 248.557 25.552 248.877 25.072L249.741 22.528C250.509 20.096 251.357 17.728 252.285 15.424C252.445 15.136 252.605 14.88 252.765 14.656C252.925 14.4 253.053 14.208 253.149 14.08C253.149 13.952 253.277 13.888 253.533 13.888C253.725 13.888 253.917 13.936 254.109 14.032C254.301 14.096 254.461 14.192 254.589 14.32C254.717 14.288 254.893 14.496 255.117 14.944C255.341 15.392 255.437 15.744 255.405 16C255.405 16.352 255.277 16.736 255.021 17.152C254.925 17.248 254.797 17.44 254.637 17.728C254.477 18.016 254.285 18.32 254.061 18.64C253.773 19.504 253.309 20.768 252.669 22.432L252.717 22.384C252.813 22.224 252.941 22.08 253.101 21.952C253.261 21.792 253.357 21.68 253.389 21.616C253.421 21.488 253.597 21.296 253.917 21.04C254.269 20.784 254.509 20.592 254.637 20.464C255.533 19.92 256.685 19.104 258.093 18.016C259.533 16.896 260.381 16.208 260.637 15.952C260.829 15.76 261.021 15.664 261.213 15.664C261.373 15.664 261.549 15.712 261.741 15.808C262.125 15.904 262.381 16.064 262.509 16.288C262.637 16.48 262.701 16.864 262.701 17.44C262.797 17.792 262.669 18.16 262.317 18.544C261.965 18.928 261.405 19.376 260.637 19.888C259.805 20.432 259.085 20.976 258.477 21.52ZM269.193 32.608C268.873 32.672 268.585 32.704 268.329 32.704C267.913 32.704 267.529 32.672 267.177 32.608C266.825 32.512 266.648 32.4 266.648 32.272C266.648 32.176 266.633 32.112 266.601 32.08C266.569 32.048 266.505 32.032 266.409 32.032C266.377 32 266.281 31.92 266.121 31.792C265.961 31.664 265.769 31.552 265.545 31.456C265.257 31.008 265.113 30.528 265.113 30.016C265.113 29.472 265.257 28.624 265.545 27.472C265.641 26.448 266.121 25.168 266.985 23.632C267.849 22.096 268.857 20.64 270.009 19.264C271.193 17.888 272.249 16.928 273.177 16.384C273.657 15.904 274.265 15.664 275.001 15.664C275.577 15.664 276.121 15.808 276.633 16.096C277.081 16.352 277.545 16.784 278.025 17.392C278.537 18 278.937 18.624 279.225 19.264C279.353 19.744 279.417 20.208 279.417 20.656C279.417 21.136 279.353 21.888 279.225 22.912C279.065 23.488 278.921 24.192 278.793 25.024C278.697 25.856 278.649 26.576 278.649 27.184C278.585 27.632 278.617 28 278.745 28.288C278.873 28.544 279.049 28.672 279.273 28.672C279.433 28.672 279.609 28.624 279.801 28.528C280.121 28.368 280.473 28.288 280.857 28.288C281.209 28.288 281.497 28.384 281.721 28.576C281.945 28.768 282.057 29.056 282.057 29.44C282.057 30.016 281.657 30.592 280.857 31.168C280.089 31.744 279.353 32.032 278.649 32.032C278.169 32.032 277.721 31.664 277.305 30.928C276.921 30.16 276.537 29.184 276.153 28L275.865 26.896L273.801 28.864L272.697 29.968C272.185 30.48 271.897 30.784 271.833 30.88C271.481 31.488 270.601 32.064 269.193 32.608ZM269.337 29.776C270.105 29.328 271.049 28.544 272.169 27.424C273.289 26.304 274.217 25.232 274.953 24.208C275.945 22.896 276.569 21.6 276.825 20.32C276.697 19.936 276.489 19.552 276.201 19.168C275.913 18.784 275.657 18.576 275.433 18.544C274.793 18.544 274.121 18.912 273.417 19.648C272.713 20.384 271.881 21.408 270.921 22.72L269.337 25.072C269.145 25.328 268.809 26.016 268.329 27.136C267.849 28.224 267.609 28.88 267.609 29.104C267.609 29.808 267.817 30.16 268.233 30.16C268.553 30.16 268.921 30.032 269.337 29.776ZM308.906 19.456C308.362 19.904 307.498 20.64 306.314 21.664C305.162 22.656 304.33 23.392 303.818 23.872L300.266 26.752C300.266 27.104 300.298 27.392 300.362 27.616C300.458 27.808 300.586 28.048 300.746 28.336C300.938 28.592 301.066 28.784 301.13 28.912C301.642 29.808 302.346 30.672 303.242 31.504C304.138 32.336 304.666 32.832 304.826 32.992C304.986 33.28 304.938 33.488 304.682 33.616C304.426 33.744 304.106 33.84 303.722 33.904C303.338 33.936 303.066 33.984 302.906 34.048C302.17 33.952 301.354 33.36 300.458 32.272C299.594 31.184 299.018 30.24 298.73 29.44C298.25 28.832 297.898 28.336 297.674 27.952C297.482 27.568 297.258 26.992 297.002 26.224C296.65 26.608 296.33 27.136 296.042 27.808C295.914 28.256 295.706 28.816 295.418 29.488C295.002 30.48 294.842 30.976 294.938 30.976L294.986 31.456C294.986 31.712 294.938 31.92 294.842 32.08C294.778 32.208 294.602 32.416 294.314 32.704L293.018 32.752C292.474 32.4 292.122 32.032 291.962 31.648C291.802 31.264 291.722 30.832 291.722 30.352C291.85 30.096 292.122 29.552 292.538 28.72C292.954 27.856 293.258 27.008 293.45 26.176C293.258 26.176 292.794 26.256 292.058 26.416C291.738 26.736 291.434 27.024 291.146 27.28C290.89 27.536 290.634 27.776 290.378 28C289.194 29.024 288.202 29.936 287.402 30.736C286.058 31.952 285.082 33.008 284.474 33.904C284.282 34.16 283.994 34.288 283.61 34.288C283.386 34.288 283.002 34.208 282.458 34.048L281.402 32.416C281.402 31.872 281.642 31.488 282.122 31.264C282.538 30.944 283.13 30.432 283.898 29.728C284.666 29.024 285.402 28.336 286.106 27.664C286.394 27.408 286.794 27.072 287.306 26.656C287.818 26.24 288.218 25.936 288.506 25.744C288.858 25.392 289.274 25.04 289.754 24.688C290.458 24.112 290.938 23.696 291.194 23.44L290.474 22.192C290.378 22.064 290.186 21.76 289.898 21.28C289.642 20.768 289.354 20.336 289.034 19.984C288.874 19.76 288.442 19.024 287.738 17.776C287.674 17.648 287.578 17.504 287.45 17.344C287.354 17.152 287.242 16.944 287.114 16.72C287.274 16.24 287.642 16 288.218 16C288.602 16 288.986 16.096 289.37 16.288C290.138 16.992 290.73 17.904 291.146 19.024C291.562 19.664 291.898 20.192 292.154 20.608C292.442 20.992 292.666 21.312 292.826 21.568C293.082 21.92 293.562 22.656 294.266 23.776C294.426 22.944 294.65 21.92 294.938 20.704C295.13 19.968 295.338 19.04 295.562 17.92C295.69 17.408 295.754 17.008 295.754 16.72L295.706 16.336V16.192C295.706 15.872 295.754 15.648 295.85 15.52C295.882 15.392 295.946 15.28 296.042 15.184C296.138 15.088 296.266 15.04 296.426 15.04C296.522 15.04 296.666 15.104 296.858 15.232C298.266 16.16 298.858 17.088 298.634 18.016L298.01 20.608C297.466 23.168 297.162 24.48 297.098 24.544L297.578 24.64C299.21 23.584 300.378 22.768 301.082 22.192C301.658 21.744 302.49 21.008 303.578 19.984C304.698 18.96 305.578 18.112 306.218 17.44C306.538 17.152 306.746 16.976 306.842 16.912C306.938 16.848 307.162 16.784 307.514 16.72C307.898 16.976 308.25 17.296 308.57 17.68C308.89 18.032 309.082 18.368 309.146 18.688V18.832C309.146 19.088 309.066 19.296 308.906 19.456ZM310.209 30.352C310.177 30.192 310.145 29.856 310.113 29.344C310.081 28.832 309.985 28.528 309.825 28.432L309.969 27.376C310.097 26.16 310.257 25.248 310.449 24.64C310.609 24.128 310.913 23.44 311.361 22.576C311.809 21.712 312.193 21.136 312.513 20.848C312.673 20.688 312.865 20.48 313.089 20.224C313.313 19.936 313.521 19.728 313.713 19.6C313.841 19.504 313.953 19.344 314.049 19.12C314.177 18.864 314.305 18.704 314.433 18.64L315.441 17.872C315.889 17.52 316.273 17.264 316.593 17.104C316.913 16.912 317.345 16.736 317.889 16.576C318.209 16.48 318.561 16.384 318.945 16.288C319.361 16.16 319.697 16.096 319.953 16.096C320.273 16.096 320.785 16.192 321.489 16.384C321.489 16.192 321.441 15.808 321.345 15.232C321.281 14.656 321.249 14.336 321.249 14.272C321.281 14.176 321.297 14.016 321.297 13.792C321.297 13.504 321.281 13.248 321.249 13.024C321.217 12.8 321.185 12.64 321.153 12.544C321.057 12.448 320.977 12.272 320.913 12.016C320.881 11.76 320.849 11.6 320.817 11.536C320.689 10.896 320.545 10.48 320.385 10.288C320.449 9.712 320.225 9.136 319.713 8.56C319.233 7.984 318.609 7.536 317.841 7.216C317.073 6.896 316.385 6.768 315.777 6.832C315.649 6.832 315.425 6.864 315.105 6.928C314.817 6.96 314.545 7.024 314.289 7.12C314.033 7.184 313.809 7.296 313.617 7.456C313.393 7.488 313.105 7.504 312.753 7.504C312.369 7.504 312.081 7.424 311.889 7.264C311.505 6.752 311.265 6.384 311.169 6.16C311.073 5.936 311.089 5.76 311.217 5.632C311.313 5.504 311.569 5.344 311.985 5.152C312.433 4.928 312.833 4.688 313.185 4.432C313.281 4.464 313.393 4.48 313.521 4.48C313.617 4.48 313.777 4.432 314.001 4.336C314.225 4.24 314.465 4.24 314.721 4.336C314.913 4.24 315.185 4.192 315.537 4.192C316.145 4.192 316.641 4.256 317.025 4.384C317.121 4.448 317.233 4.496 317.361 4.528C317.489 4.56 317.569 4.576 317.601 4.576C318.721 4.832 319.697 5.296 320.529 5.968C321.393 6.608 322.081 7.456 322.593 8.512L323.745 10.96C323.777 11.088 323.825 11.408 323.889 11.92C323.953 12.4 324.033 12.912 324.129 13.456L324.321 14.752C324.385 15.136 324.417 15.408 324.417 15.568C324.417 15.792 324.385 16.128 324.321 16.576C323.937 19.104 323.361 21.424 322.593 23.536C321.825 25.648 320.785 27.792 319.473 29.968C319.089 30.576 318.305 31.376 317.121 32.368C316.225 33.136 314.993 33.552 313.425 33.616C312.657 33.008 312.033 32.528 311.553 32.176C311.105 31.792 310.801 31.504 310.641 31.312C310.513 31.088 310.369 30.768 310.209 30.352ZM313.905 31.264C314.001 31.2 314.193 31.12 314.481 31.024C314.801 30.896 315.009 30.704 315.105 30.448C315.681 30 316.401 29.136 317.265 27.856C318.129 26.576 318.753 25.456 319.137 24.496C319.201 24.368 319.297 24.08 319.424 23.632C319.585 23.184 319.761 22.816 319.953 22.528C320.209 22.048 320.417 21.504 320.577 20.896C320.737 20.288 320.817 19.744 320.817 19.264C320.817 18.912 320.769 18.624 320.673 18.4C319.041 18.944 317.697 19.68 316.641 20.608C315.585 21.536 314.625 22.816 313.761 24.448C313.665 24.992 313.489 25.584 313.233 26.224C312.913 27.12 312.737 27.792 312.705 28.24C312.545 28.56 312.465 28.88 312.465 29.2C312.465 29.552 312.545 30 312.705 30.544C313.121 30.896 313.393 31.088 313.521 31.12C313.649 31.152 313.777 31.2 313.905 31.264ZM330.242 33.712C329.858 33.744 329.538 33.728 329.282 33.664C329.058 33.568 328.722 33.376 328.274 33.088C326.898 31.968 326.226 30.864 326.258 29.776C326.29 29.68 326.306 29.536 326.306 29.344C326.306 29.152 326.29 29.008 326.258 28.912C326.226 28.784 326.21 28.704 326.21 28.672C326.082 28.576 326.002 28.512 325.97 28.48C325.97 28.416 325.986 28.352 326.018 28.288C326.082 28.224 326.13 28.16 326.162 28.096C326.29 28.064 326.354 28 326.354 27.904C326.354 27.808 326.322 27.696 326.258 27.568C326.162 27.312 326.21 26.736 326.402 25.84C326.626 24.912 326.914 24.048 327.266 23.248C327.522 22.64 327.922 21.856 328.466 20.896C329.042 19.936 329.57 19.2 330.05 18.688C330.722 17.92 331.33 17.328 331.874 16.912C332.45 16.496 333.106 16.16 333.842 15.904C334.514 15.616 334.978 15.472 335.234 15.472C335.554 15.472 335.954 15.664 336.434 16.048C337.202 16.272 337.778 16.592 338.162 17.008C338.578 17.392 338.898 18 339.122 18.832C339.314 19.504 339.41 20.256 339.41 21.088C339.41 22.88 338.85 24.848 337.73 26.992C337.154 28.144 336.594 29.04 336.05 29.68C335.506 30.288 334.754 31.008 333.794 31.84C333.122 32.384 332.53 32.8 332.018 33.088C331.538 33.376 330.946 33.584 330.242 33.712ZM334.082 28C334.754 27.008 335.266 26.112 335.618 25.312C335.97 24.48 336.258 23.456 336.482 22.24C336.514 22.112 336.53 21.856 336.53 21.472C336.53 20.832 336.466 20.224 336.338 19.648C336.21 19.072 336.05 18.768 335.858 18.736C335.602 18.64 335.362 18.592 335.138 18.592C334.402 18.592 333.618 19.024 332.786 19.888C332.018 20.784 331.346 21.872 330.77 23.152C330.226 24.4 329.682 25.936 329.138 27.76C328.978 28.4 328.898 28.912 328.898 29.296C328.898 29.872 329.01 30.336 329.234 30.688C329.458 31.008 329.778 31.168 330.194 31.168C330.706 31.168 331.298 30.912 331.97 30.4C332.642 29.856 333.346 29.056 334.082 28ZM345.148 32.032C344.892 32.096 344.7 32.128 344.572 32.128C344.412 32.128 344.108 32.064 343.66 31.936C342.988 31.68 342.652 31.232 342.652 30.592C342.652 30.304 342.748 29.808 342.94 29.104C343.036 28.752 343.116 28.4 343.18 28.048C343.276 27.664 343.308 27.344 343.276 27.088C343.404 26.576 343.692 25.68 344.14 24.4C344.428 23.632 344.684 22.864 344.908 22.096C345.132 21.296 345.244 20.656 345.244 20.176C345.244 19.984 345.196 19.744 345.1 19.456C345.004 19.168 344.956 18.96 344.956 18.832C344.956 18.544 345.084 18.272 345.34 18.016L346.54 16.768C346.86 16.704 347.084 16.672 347.212 16.672C347.34 16.672 347.532 16.704 347.788 16.768L348.076 16.72C348.556 16.464 349.228 16.256 350.092 16.096C350.956 15.904 351.788 15.808 352.588 15.808C353.612 15.808 354.332 15.936 354.748 16.192C355.42 16.544 355.756 16.992 355.756 17.536C355.756 17.632 355.724 17.808 355.66 18.064L355.036 18.544C354.844 18.48 354.7 18.448 354.604 18.448C354.508 18.448 354.38 18.464 354.22 18.496C354.06 18.528 353.916 18.528 353.788 18.496C353.404 18.432 353.004 18.4 352.588 18.4C351.884 18.4 351.18 18.464 350.476 18.592C349.804 18.72 349.308 18.912 348.988 19.168C348.956 19.392 348.348 21.264 347.164 24.784C346.812 25.616 346.524 26.432 346.3 27.232C346.076 28.032 345.836 29.008 345.58 30.16L345.148 32.032ZM358.19 33.28C357.806 33.28 357.502 33.216 357.278 33.088C357.054 32.96 356.734 32.72 356.318 32.368C355.262 31.248 354.734 30.224 354.734 29.296C354.734 29.072 354.75 28.912 354.782 28.816C354.878 28.592 354.91 28.368 354.878 28.144C354.878 27.92 354.878 27.776 354.878 27.712C354.75 27.584 354.686 27.504 354.686 27.472C354.686 27.408 354.718 27.36 354.782 27.328C354.846 27.264 354.894 27.2 354.926 27.136C355.118 27.136 355.182 26.96 355.118 26.608C355.054 26.352 355.182 25.792 355.502 24.928C355.822 24.032 356.222 23.216 356.702 22.48C357.054 21.904 357.566 21.184 358.238 20.32C358.942 19.456 359.566 18.8 360.11 18.352C360.878 17.68 361.566 17.184 362.174 16.864C362.782 16.544 363.454 16.304 364.19 16.144C364.83 15.984 365.262 15.904 365.486 15.904C365.71 15.904 365.902 15.968 366.062 16.096C366.254 16.192 366.494 16.384 366.782 16.672C367.646 17.056 368.238 17.552 368.558 18.16C368.91 18.736 369.086 19.648 369.086 20.896C369.086 22.976 368.238 25.232 366.542 27.664C365.806 28.72 365.118 29.536 364.478 30.112C363.838 30.656 362.99 31.248 361.934 31.888C361.262 32.368 360.638 32.72 360.062 32.944C359.518 33.136 358.894 33.248 358.19 33.28ZM362.798 28.192C363.566 27.328 364.174 26.512 364.622 25.744C365.102 24.976 365.55 24 365.966 22.816C366.126 22.272 366.206 21.616 366.206 20.848C366.206 19.888 366.078 19.344 365.822 19.216C365.502 19.056 365.182 18.976 364.862 18.976C364.158 18.976 363.422 19.296 362.654 19.936C361.726 20.736 360.894 21.728 360.158 22.912C359.422 24.064 358.67 25.504 357.902 27.232C357.582 27.904 357.422 28.56 357.422 29.2C357.422 29.68 357.534 30.064 357.758 30.352C358.014 30.64 358.35 30.784 358.766 30.784C359.822 30.784 361.166 29.92 362.798 28.192Z" fill="#383434"/>
</svg>
